Coordinates
version=1
nRows=13
nColumns=38
inDegrees=no

Units are S.I. units (second, meters, Newtons, ...)
If the header above contains a line with 'inDegrees', this indicates whether rotational values are in degrees (yes) or radians (no).

endheader
time	pelvis_tilt	pelvis_list	pelvis_rotation	pelvis_tx	pelvis_ty	pelvis_tz	hip_flexion_r	hip_adduction_r	hip_rotation_r	knee_angle_r	ankle_angle_r	subtalar_angle_r	mtp_angle_r	hip_flexion_l	hip_adduction_l	hip_rotation_l	knee_angle_l	ankle_angle_l	subtalar_angle_l	mtp_angle_l	lumbar_extension	lumbar_bending	lumbar_rotation	arm_flex_r	arm_add_r	arm_rot_r	elbow_flex_r	pro_sup_r	wrist_flex_r	wrist_dev_r	arm_flex_l	arm_add_l	arm_rot_l	elbow_flex_l	pro_sup_l	wrist_flex_l	wrist_dev_l
85	2.81376	1.46386	-1.2053	0.546271	1.19289	1.08902	0.166886	-0.0484606	-0.00536895	0.458176	-0.444408	0	0	-0.0453081	0.0137023	-0.099044	0.21303	-0.342855	0	0	-0.14198	0.0342992	0.135706	0.340053	-0.423757	0.301153	1.27314	1.5708	0	0	0.273296	-0.0467887	0.257786	1.22596	1.5708	0	0
85.01	2.85487	1.4608	-1.24369	0.546267	1.19494	1.08932	0.153503	-0.0515657	-0.00864565	0.446796	-0.450727	0	0	-0.05374	0.0170897	-0.0954408	0.209151	-0.349685	0	0	-0.14485	0.0326047	0.132745	0.346387	-0.424292	0.309111	1.26723	1.5708	0	0	0.276718	-0.0487619	0.259826	1.22171	1.5708	0	0
85.02	2.88905	1.46063	-1.27547	0.546368	1.19713	1.08927	0.144459	-0.0554217	-0.0122784	0.438364	-0.444499	0	0	-0.0572608	0.0203137	-0.0951126	0.209794	-0.348434	0	0	-0.144361	0.0299168	0.132254	0.347505	-0.424453	0.310778	1.26432	1.5708	0	0	0.280002	-0.0498285	0.263458	1.21679	1.5708	0	0
85.03	2.92289	1.46046	-1.30702	0.546535	1.19932	1.08924	0.135874	-0.0596002	-0.0165802	0.429579	-0.439651	0	0	-0.0606773	0.023471	-0.0950039	0.210359	-0.347377	0	0	-0.143457	0.0275663	0.131118	0.349422	-0.424456	0.313884	1.26092	1.5708	0	0	0.282461	-0.0510136	0.265998	1.21212	1.5708	0	0
85.04	2.95351	1.46079	-1.33557	0.546813	1.20149	1.08917	0.128847	-0.0636264	-0.0216908	0.422071	-0.437421	0	0	-0.0632716	0.0263577	-0.0949017	0.210992	-0.346574	0	0	-0.141743	0.0257631	0.128917	0.352492	-0.423972	0.31873	1.25705	1.5708	0	0	0.28344	-0.0522859	0.266163	1.20863	1.5708	0	0
85.05	2.96413	1.46854	-1.34513	0.546999	1.20425	1.08926	0.129654	-0.0669253	-0.0263711	0.413171	-0.439599	0	0	-0.0586302	0.0294669	-0.0934927	0.209303	-0.348396	0	0	-0.117987	0.0437913	0.147729	0.329818	-0.431438	0.297726	1.26142	1.5708	0	0	0.279591	0.0384816	0.175269	1.13544	1.5708	0	0
85.06	2.96667	1.47447	-1.34525	0.547189	1.20652	1.0888	0.130799	-0.0691802	-0.0340316	0.40779	-0.442069	0	0	-0.0540359	0.0306442	-0.0903043	0.210412	-0.348348	0	0	-0.105436	0.0480676	0.148557	0.326427	-0.431602	0.296814	1.25789	1.5708	0	0	0.277672	0.0660376	0.138081	1.11272	1.5708	0	0
85.07	2.98334	1.47714	-1.35956	0.547489	1.20877	1.08866	0.127735	-0.071821	-0.0424242	0.401354	-0.4444	0	0	-0.0534641	0.0322959	-0.0883248	0.211124	-0.347796	0	0	-0.0995506	0.0480013	0.146907	0.326639	-0.430599	0.298771	1.25409	1.5708	0	0	0.276406	0.0736531	0.125078	1.10535	1.5708	0	0
85.08	3.00083	1.47823	-1.37465	0.54786	1.21085	1.08871	0.122717	-0.0739059	-0.0502486	0.393856	-0.446636	0	0	-0.0543897	0.03354	-0.0856321	0.211708	-0.34721	0	0	-0.0961593	0.0479246	0.145259	0.328031	-0.429961	0.301578	1.25026	1.5708	0	0	0.276904	0.0769076	0.119079	1.09931	1.5708	0	0
85.09	3.01616	1.47786	-1.38761	0.548272	1.21287	1.08892	0.117011	-0.0757583	-0.0593141	0.388429	-0.448648	0	0	-0.0563342	0.0340482	-0.0835242	0.213069	-0.346523	0	0	-0.0940364	0.0484707	0.143965	0.329776	-0.429657	0.305126	1.24596	1.5708	0	0	0.278445	0.0788837	0.115751	1.09239	1.5708	0	0
85.1	3.02986	1.47719	-1.3993	0.548701	1.2148	1.08919	0.11094	-0.0771388	-0.0661193	0.383057	-0.449692	0	0	-0.0581275	0.0343596	-0.0820216	0.215117	-0.345831	0	0	-0.0921637	0.0493534	0.143513	0.331096	-0.429688	0.308255	1.24199	1.5708	0	0	0.280603	0.0803134	0.114116	1.08489	1.5708	0	0
85.11	3.04003	1.4759	-1.40761	0.549168	1.21668	1.08953	0.105121	-0.0782164	-0.0733455	0.380154	-0.449421	0	0	-0.0603506	0.0341606	-0.0809578	0.217454	-0.345007	0	0	-0.0905435	0.0509118	0.143582	0.332126	-0.429996	0.311241	1.23826	1.5708	0	0	0.283357	0.0812604	0.113924	1.07641	1.5708	0	0
85.12	3.04903	1.47457	-1.41509	0.549655	1.21857	1.08986	0.0993326	-0.0789763	-0.0793992	0.377501	-0.448551	0	0	-0.062551	0.0338681	-0.0806315	0.220054	-0.344052	0	0	-0.0886339	0.0524026	0.144836	0.331789	-0.430703	0.312558	1.23528	1.5708	0	0	0.28646	0.0821378	0.11534	1.06731	1.5708	0	0
